<svg xmlns="http://www.w3.org/2000/svg" xmlns:xlink="http://www.w3.org/1999/xlink" width="1900" zoomAndPan="magnify" viewBox="0 0 1425 449.999984" height="600" preserveAspectRatio="xMidYMid meet" version="1.0"><defs><g/><clipPath id="362b1ad61f"><path d="M 96 11 L 339 11 L 339 261 L 96 261 Z M 96 11 " clip-rule="nonzero"/></clipPath><clipPath id="6093335ec8"><path d="M 86.460938 15.117188 L 445.605469 6.421875 L 456.132812 441.292969 L 96.988281 449.988281 Z M 86.460938 15.117188 " clip-rule="nonzero"/></clipPath><clipPath id="5a17985592"><path d="M 86.460938 15.117188 L 445.605469 6.421875 L 456.132812 441.292969 L 96.988281 449.988281 Z M 86.460938 15.117188 " clip-rule="nonzero"/></clipPath><clipPath id="13796188e0"><path d="M 86.460938 15.117188 L 445.605469 6.421875 L 456.132812 441.292969 L 96.988281 449.988281 Z M 86.460938 15.117188 " clip-rule="nonzero"/></clipPath><clipPath id="a2cbb89ae0"><path d="M 214 135 L 449 135 L 449 445 L 214 445 Z M 214 135 " clip-rule="nonzero"/></clipPath><clipPath id="de4b97575f"><path d="M 86.460938 15.117188 L 445.605469 6.421875 L 456.132812 441.292969 L 96.988281 449.988281 Z M 86.460938 15.117188 " clip-rule="nonzero"/></clipPath><clipPath id="c34b5faf64"><path d="M 86.460938 15.117188 L 445.605469 6.421875 L 456.132812 441.292969 L 96.988281 449.988281 Z M 86.460938 15.117188 " clip-rule="nonzero"/></clipPath><clipPath id="333917f50f"><path d="M 86.460938 15.117188 L 445.605469 6.421875 L 456.132812 441.292969 L 96.988281 449.988281 Z M 86.460938 15.117188 " clip-rule="nonzero"/></clipPath><clipPath id="a993b6ac05"><path d="M 639.628906 186.980469 L 762.820312 186.980469 L 762.820312 290.722656 L 639.628906 290.722656 Z M 639.628906 186.980469 " clip-rule="nonzero"/></clipPath><clipPath id="22e7ee47eb"><path d="M 701.203125 186.980469 C 667.195312 186.980469 639.628906 210.203125 639.628906 238.851562 C 639.628906 267.496094 667.195312 290.722656 701.203125 290.722656 C 735.210938 290.722656 762.78125 267.496094 762.78125 238.851562 C 762.78125 210.203125 735.210938 186.980469 701.203125 186.980469 Z M 701.203125 186.980469 " clip-rule="nonzero"/></clipPath></defs><g clip-path="url(#362b1ad61f)"><g clip-path="url(#6093335ec8)"><g clip-path="url(#5a17985592)"><g clip-path="url(#13796188e0)"><path fill="#000000" d="M 338.578125 212.109375 L 317.1875 257.738281 C 266.480469 258.65625 226.179688 259.382812 185.882812 260.90625 C 143.886719 262.507812 106.332031 234.113281 98.414062 191.875 C 89.667969 145.125 117.453125 105.007812 158.128906 93.4375 C 167.921875 90.652344 178.457031 90.109375 188.710938 89.414062 C 200.828125 88.585938 213.003906 88.703125 227.34375 88.355469 C 214.199219 62.589844 201.679688 38.0625 188.742188 12.726562 L 239.976562 11.484375 C 241.390625 13.488281 242.703125 15.792969 243.984375 18.472656 C 261.214844 54.429688 280.125 89.574219 298.363281 125.050781 C 299.105469 126.484375 299.699219 127.988281 300.738281 130.285156 C 297.984375 130.476562 295.84375 130.726562 293.695312 130.78125 C 256.886719 131.683594 220.0625 132.523438 183.257812 133.476562 C 161.894531 134.019531 144.09375 149.972656 142.160156 170.113281 C 140.148438 191.226562 153.824219 210.234375 174.871094 215.03125 C 179.03125 215.972656 183.511719 215.828125 187.832031 215.722656 C 234.621094 214.652344 281.410156 213.496094 338.578125 212.109375 Z M 338.578125 212.109375 " fill-opacity="1" fill-rule="nonzero"/></g></g></g></g><g clip-path="url(#a2cbb89ae0)"><g clip-path="url(#de4b97575f)"><g clip-path="url(#c34b5faf64)"><g clip-path="url(#333917f50f)"><path fill="#000000" d="M 392.265625 137.167969 C 362.707031 200.453125 332.933594 263.632812 303.195312 326.828125 C 302.15625 329.027344 300.980469 331.140625 299.402344 334.1875 C 297.894531 331.539062 296.835938 329.824219 295.910156 328.035156 C 288.585938 313.796875 281.199219 299.597656 267.792969 272.78125 L 214.683594 274.066406 C 248.042969 339.484375 274.765625 391.613281 302.078125 444.875 C 351.175781 341.449219 399.75 239.136719 448.8125 135.796875 Z M 392.265625 137.167969 " fill-opacity="1" fill-rule="nonzero"/></g></g></g></g><g fill="#000000" fill-opacity="1"><g transform="translate(478.019053, 110.090943)"><g><path d="M 37.398438 1.710938 C 46.6875 1.710938 54.632812 -1.589844 60.378906 -7.332031 L 62.578125 0 L 76.390625 0 L 76.390625 -90.445312 L 57.8125 -90.445312 L 57.8125 -59.15625 C 52.3125 -63.433594 45.34375 -65.878906 37.398438 -65.878906 C 18.332031 -65.878906 4.765625 -51.824219 4.765625 -32.144531 C 4.765625 -12.222656 18.332031 1.710938 37.398438 1.710938 Z M 23.101562 -32.144531 C 23.101562 -42.535156 30.3125 -49.988281 40.824219 -49.988281 C 51.210938 -49.988281 58.421875 -42.535156 58.421875 -32.144531 C 58.421875 -21.632812 51.210938 -14.300781 40.824219 -14.300781 C 30.3125 -14.300781 23.101562 -21.632812 23.101562 -32.144531 Z M 23.101562 -32.144531 "/></g></g></g><g fill="#000000" fill-opacity="1"><g transform="translate(563.694975, 110.090943)"><g><path d="M 9.289062 0 L 27.867188 0 L 27.867188 -64.167969 L 9.289062 -64.167969 Z M 7.945312 -83.601562 C 7.945312 -77.488281 12.34375 -73.210938 18.578125 -73.210938 C 24.933594 -73.210938 29.210938 -77.488281 29.210938 -83.601562 C 29.210938 -89.589844 24.933594 -93.867188 18.578125 -93.867188 C 12.34375 -93.867188 7.945312 -89.589844 7.945312 -83.601562 Z M 7.945312 -83.601562 "/></g></g></g><g fill="#000000" fill-opacity="1"><g transform="translate(600.849733, 110.090943)"><g><path d="M 40.578125 27.132812 C 61.113281 27.132812 74.191406 15.644531 74.191406 -3.542969 L 74.191406 -64.167969 L 60.378906 -64.167969 L 58.421875 -57.078125 C 52.800781 -62.699219 44.976562 -65.878906 35.8125 -65.878906 C 17.722656 -65.878906 4.765625 -52.554688 4.765625 -33.855469 C 4.765625 -15.035156 17.722656 -1.710938 35.8125 -1.710938 C 43.511719 -1.710938 50.355469 -4.035156 55.613281 -8.066406 L 55.613281 -3.542969 C 55.613281 6.84375 50.355469 12.101562 40.210938 12.101562 C 32.511719 12.101562 27.378906 8.921875 26.035156 3.300781 L 7.945312 3.300781 C 9.535156 18.089844 22 27.132812 40.578125 27.132812 Z M 23.101562 -33.855469 C 23.101562 -43.632812 29.945312 -50.476562 39.722656 -50.476562 C 49.5 -50.476562 56.46875 -43.632812 56.46875 -33.855469 C 56.46875 -23.957031 49.5 -17.109375 39.722656 -17.109375 C 29.945312 -17.109375 23.101562 -23.957031 23.101562 -33.855469 Z M 23.101562 -33.855469 "/></g></g></g><g fill="#000000" fill-opacity="1"><g transform="translate(684.447906, 110.090943)"><g><path d="M 9.289062 0 L 27.867188 0 L 27.867188 -64.167969 L 9.289062 -64.167969 Z M 7.945312 -83.601562 C 7.945312 -77.488281 12.34375 -73.210938 18.578125 -73.210938 C 24.933594 -73.210938 29.210938 -77.488281 29.210938 -83.601562 C 29.210938 -89.589844 24.933594 -93.867188 18.578125 -93.867188 C 12.34375 -93.867188 7.945312 -89.589844 7.945312 -83.601562 Z M 7.945312 -83.601562 "/></g></g></g><g fill="#000000" fill-opacity="1"><g transform="translate(721.602664, 110.090943)"><g><path d="M 40.210938 0 L 51.945312 0 L 51.945312 -16.132812 L 44.246094 -16.132812 C 36.910156 -16.132812 33.488281 -19.679688 33.488281 -27.132812 L 33.488281 -49.011719 L 51.089844 -49.011719 L 51.089844 -64.167969 L 33.488281 -64.167969 L 33.488281 -80.789062 L 19.066406 -80.789062 L 17.96875 -72.476562 C 16.988281 -65.878906 15.15625 -64.167969 8.1875 -64.167969 L 2.445312 -64.167969 L 2.445312 -49.011719 L 14.910156 -49.011719 L 14.910156 -24.324219 C 14.910156 -8.679688 23.957031 0 40.210938 0 Z M 40.210938 0 "/></g></g></g><g fill="#000000" fill-opacity="1"><g transform="translate(778.67918, 110.090943)"><g><path d="M 30.679688 1.222656 C 40.210938 1.222656 48.035156 -1.832031 53.535156 -7.457031 L 55.613281 0 L 69.421875 0 L 69.421875 -38.621094 C 69.421875 -55.613281 57.933594 -65.878906 38.746094 -65.878906 C 22.367188 -65.878906 11.609375 -58.054688 9.289062 -44.121094 L 27.132812 -44.121094 C 28.234375 -48.644531 32.878906 -51.699219 38.867188 -51.699219 C 46.199219 -51.699219 51.210938 -47.546875 51.210938 -41.1875 L 51.210938 -38.257812 L 27.988281 -38.257812 C 14.667969 -38.257812 6.109375 -30.554688 6.109375 -18.699219 C 6.109375 -6.355469 15.523438 1.222656 30.679688 1.222656 Z M 24.445312 -19.433594 C 24.445312 -23.832031 28.113281 -26.644531 33.734375 -26.644531 L 51.332031 -26.644531 C 50.96875 -17.96875 44.246094 -12.101562 34.957031 -12.101562 C 28.601562 -12.101562 24.445312 -15.035156 24.445312 -19.433594 Z M 24.445312 -19.433594 "/></g></g></g><g fill="#000000" fill-opacity="1"><g transform="translate(856.166397, 110.090943)"><g><path d="M 9.289062 0 L 27.867188 0 L 27.867188 -90.445312 L 9.289062 -90.445312 Z M 9.289062 0 "/></g></g></g><g fill="#000000" fill-opacity="1"><g transform="translate(478.019053, 404.838683)"><g><path d="M 8.679688 0.710938 C 12.179688 0.710938 14.703125 -1.75 14.703125 -5.117188 C 14.703125 -8.484375 12.179688 -11.011719 8.679688 -11.011719 C 5.117188 -11.011719 2.65625 -8.484375 2.65625 -5.117188 C 2.65625 -1.75 5.117188 0.710938 8.679688 0.710938 Z M 8.679688 0.710938 "/></g></g></g><g fill="#000000" fill-opacity="1"><g transform="translate(495.314198, 404.838683)"><g><path d="M 16.257812 0.648438 C 21.3125 0.648438 25.457031 -0.972656 28.371094 -3.953125 L 29.472656 0 L 36.792969 0 L 36.792969 -20.46875 C 36.792969 -29.472656 30.703125 -34.914062 20.535156 -34.914062 C 11.855469 -34.914062 6.152344 -30.769531 4.921875 -23.386719 L 14.378906 -23.386719 C 14.964844 -25.78125 17.425781 -27.402344 20.597656 -27.402344 C 24.484375 -27.402344 27.140625 -25.199219 27.140625 -21.832031 L 27.140625 -20.277344 L 14.835938 -20.277344 C 7.773438 -20.277344 3.238281 -16.195312 3.238281 -9.910156 C 3.238281 -3.367188 8.226562 0.648438 16.257812 0.648438 Z M 12.957031 -10.300781 C 12.957031 -12.632812 14.898438 -14.121094 17.878906 -14.121094 L 27.207031 -14.121094 C 27.011719 -9.523438 23.449219 -6.414062 18.527344 -6.414062 C 15.15625 -6.414062 12.957031 -7.96875 12.957031 -10.300781 Z M 12.957031 -10.300781 "/></g></g></g><g fill="#000000" fill-opacity="1"><g transform="translate(536.382095, 404.838683)"><g><path d="M 21.507812 14.378906 C 32.390625 14.378906 39.320312 8.292969 39.320312 -1.878906 L 39.320312 -34.007812 L 32 -34.007812 L 30.964844 -30.25 C 27.984375 -33.230469 23.839844 -34.914062 18.980469 -34.914062 C 9.394531 -34.914062 2.527344 -27.855469 2.527344 -17.945312 C 2.527344 -7.96875 9.394531 -0.90625 18.980469 -0.90625 C 23.0625 -0.90625 26.6875 -2.136719 29.472656 -4.273438 L 29.472656 -1.878906 C 29.472656 3.628906 26.6875 6.414062 21.3125 6.414062 C 17.230469 6.414062 14.511719 4.730469 13.796875 1.75 L 4.210938 1.75 C 5.050781 9.585938 11.660156 14.378906 21.507812 14.378906 Z M 12.242188 -17.945312 C 12.242188 -23.125 15.871094 -26.753906 21.054688 -26.753906 C 26.234375 -26.753906 29.925781 -23.125 29.925781 -17.945312 C 29.925781 -12.695312 26.234375 -9.070312 21.054688 -9.070312 C 15.871094 -9.070312 12.242188 -12.695312 12.242188 -17.945312 Z M 12.242188 -17.945312 "/></g></g></g><g fill="#000000" fill-opacity="1"><g transform="translate(580.688773, 404.838683)"><g><path d="M 20.988281 0.90625 C 29.34375 0.90625 35.953125 -3.367188 38.929688 -10.558594 L 28.957031 -10.558594 C 27.335938 -8.292969 24.421875 -6.996094 21.183594 -6.996094 C 16.710938 -6.996094 13.214844 -9.523438 12.308594 -14.1875 L 39.578125 -14.1875 C 40.164062 -26.625 32.777344 -34.914062 21.117188 -34.914062 C 10.105469 -34.914062 2.527344 -27.59375 2.527344 -17.035156 C 2.527344 -6.414062 10.039062 0.90625 20.988281 0.90625 Z M 12.371094 -20.40625 C 13.472656 -24.550781 16.84375 -27.078125 21.183594 -27.078125 C 25.71875 -27.078125 28.957031 -24.550781 30.058594 -20.40625 Z M 12.371094 -20.40625 "/></g></g></g><g fill="#000000" fill-opacity="1"><g transform="translate(622.728314, 404.838683)"><g><path d="M 4.921875 0 L 14.769531 0 L 14.769531 -17.8125 C 14.769531 -23.191406 17.75 -26.496094 22.285156 -26.496094 C 26.496094 -26.496094 29.019531 -23.515625 29.019531 -18.527344 L 29.019531 0 L 38.867188 0 L 38.867188 -19.5625 C 38.867188 -28.957031 33.488281 -34.914062 24.617188 -34.914062 C 20.082031 -34.914062 16 -33.359375 13.28125 -30.1875 L 12.242188 -34.007812 L 4.921875 -34.007812 Z M 4.921875 0 "/></g></g></g><g fill="#000000" fill-opacity="1"><g transform="translate(665.869027, 404.838683)"><g><path d="M 21.117188 0.90625 C 30.703125 0.90625 37.894531 -4.730469 39.707031 -13.667969 L 30.121094 -13.667969 C 28.761719 -9.976562 25.394531 -7.578125 21.246094 -7.578125 C 15.933594 -7.578125 12.242188 -11.464844 12.242188 -17.035156 C 12.242188 -22.609375 15.933594 -26.496094 21.246094 -26.496094 C 25.132812 -26.496094 28.308594 -24.421875 29.925781 -20.988281 L 39.386719 -20.988281 C 37.832031 -29.410156 30.574219 -34.914062 21.117188 -34.914062 C 10.234375 -34.914062 2.527344 -27.464844 2.527344 -17.035156 C 2.527344 -6.542969 10.171875 0.90625 21.117188 0.90625 Z M 21.117188 0.90625 "/></g></g></g><g fill="#000000" fill-opacity="1"><g transform="translate(707.973332, 404.838683)"><g><path d="M 5.050781 12.957031 L 9.652344 12.957031 C 17.554688 12.957031 20.859375 11.011719 23.644531 4.015625 L 38.800781 -34.007812 L 28.242188 -34.007812 L 23.707031 -21.636719 L 20.597656 -12.957031 L 11.464844 -34.007812 L 0.582031 -34.007812 L 15.871094 -1.101562 L 15.480469 0.0664062 C 14.316406 3.433594 12.957031 4.46875 8.9375 4.46875 L 5.050781 4.46875 Z M 5.050781 12.957031 "/></g></g></g><g fill="#000000" fill-opacity="1"><g transform="translate(478.326781, 302.805255)"><g><path d="M 54.308594 0 L 84.785156 0 L 137.332031 -136.746094 L 104.125 -136.746094 L 69.742188 -44.734375 L 53.332031 -88.105469 L 35.164062 -136.746094 L 1.757812 -136.746094 Z M 54.308594 0 "/></g></g></g><g fill="#000000" fill-opacity="1"><g transform="translate(617.414218, 302.805255)"><g><path d="M 81.265625 2.734375 C 124.050781 2.734375 154.328125 -26.566406 154.328125 -68.375 C 154.328125 -110.179688 124.050781 -139.484375 81.265625 -139.484375 C 38.484375 -139.484375 8.398438 -110.179688 8.398438 -68.375 C 8.398438 -26.566406 38.484375 2.734375 81.265625 2.734375 Z M 40.046875 -68.375 C 40.046875 -92.988281 57.042969 -109.984375 81.265625 -109.984375 C 105.6875 -109.984375 122.488281 -92.988281 122.488281 -68.375 C 122.488281 -43.757812 105.6875 -26.761719 81.265625 -26.761719 C 57.042969 -26.761719 40.046875 -43.757812 40.046875 -68.375 Z M 40.046875 -68.375 "/></g></g></g><g fill="#000000" fill-opacity="1"><g transform="translate(780.138686, 302.805255)"><g><path d="M 52.160156 0 L 83.222656 0 L 83.222656 -48.253906 L 133.425781 -136.746094 L 98.066406 -136.746094 L 81.265625 -105.101562 L 67.789062 -80.289062 L 54.113281 -105.101562 L 37.117188 -136.746094 L 1.757812 -136.746094 L 52.160156 -47.863281 Z M 52.160156 0 "/></g></g></g><g fill="#000000" fill-opacity="1"><g transform="translate(915.31916, 302.805255)"><g><path d="M 1.757812 0 L 34.96875 0 L 44.148438 -23.636719 L 98.457031 -23.636719 L 107.640625 0 L 140.851562 0 L 86.542969 -136.746094 L 56.066406 -136.746094 Z M 52.160156 -48.058594 L 71.304688 -98.066406 L 90.644531 -48.058594 Z M 52.160156 -48.058594 "/></g></g></g><g fill="#000000" fill-opacity="1"><g transform="translate(1057.922852, 302.805255)"><g><path d="M 80.09375 2.734375 C 125.222656 2.734375 154.328125 -30.671875 151.203125 -77.554688 L 74.039062 -77.554688 L 74.039062 -53.527344 L 118.382812 -53.527344 C 114.476562 -36.921875 100.410156 -25.785156 80.484375 -25.785156 C 55.480469 -25.785156 39.460938 -43.757812 39.460938 -68.375 C 39.460938 -93.378906 56.066406 -110.960938 80.09375 -110.960938 C 95.332031 -110.960938 108.03125 -103.929688 114.671875 -92.011719 L 148.078125 -92.011719 C 139.875 -120.730469 112.71875 -139.484375 79.507812 -139.484375 C 37.898438 -139.484375 8.398438 -109.984375 8.398438 -68.375 C 8.398438 -26.566406 38.09375 2.734375 80.09375 2.734375 Z M 80.09375 2.734375 "/></g></g></g><g fill="#000000" fill-opacity="1"><g transform="translate(1217.326463, 302.805255)"><g><path d="M 16.410156 0 L 108.421875 0 L 108.421875 -26.371094 L 47.277344 -26.371094 L 47.277344 -56.261719 L 100.996094 -56.261719 L 100.996094 -82.242188 L 47.277344 -82.242188 L 47.277344 -110.570312 L 106.273438 -110.570312 L 106.273438 -136.746094 L 16.410156 -136.746094 Z M 16.410156 0 "/></g></g></g><g clip-path="url(#a993b6ac05)"><g clip-path="url(#22e7ee47eb)"><path fill="#000000" d="M 639.628906 186.980469 L 762.820312 186.980469 L 762.820312 290.722656 L 639.628906 290.722656 Z M 639.628906 186.980469 " fill-opacity="1" fill-rule="nonzero"/></g></g></svg>